<?xml version="1.0" encoding="UTF-8"?><svg id="_Слой_2" xmlns="http://www.w3.org/2000/svg" viewBox="0 0 595.28 595.28"><defs><style>.cls-1{stroke:#000;stroke-miterlimit:10;stroke-width:15.11px;}.cls-1,.cls-2{fill:#b0ccd8;}.cls-3,.cls-2{stroke-width:0px;}</style></defs><path class="cls-2" d="m83.43,49.72h428.42c9.21,0,16.69,7.48,16.69,16.69v399.87c0,9.21-7.48,16.69-16.69,16.69H83.43c-9.21,0-16.69-7.48-16.69-16.69V66.41c0-9.21,7.48-16.69,16.69-16.69Z"/><path class="cls-3" d="m511.85,52.24c7.83,0,14.17,6.35,14.17,14.17v399.87c0,7.83-6.35,14.17-14.17,14.17H83.43c-7.83,0-14.17-6.35-14.17-14.17V66.41c0-7.83,6.35-14.17,14.17-14.17h428.42m0-5.04H83.43c-10.59,0-19.21,8.62-19.21,19.21v399.87c0,10.59,8.62,19.21,19.21,19.21h428.42c10.59,0,19.21-8.62,19.21-19.21V66.41c0-10.59-8.62-19.21-19.21-19.21h0Z"/><circle class="cls-1" cx="297.64" cy="266.35" r="107.05"/><line class="cls-1" x1="297.64" y1="221.36" x2="297.64" y2="307"/><line class="cls-1" x1="340.46" y1="264.18" x2="254.82" y2="264.18"/></svg>