<?xml version="1.0" encoding="UTF-8"?><svg id="_Слой_2" xmlns="http://www.w3.org/2000/svg" viewBox="0 0 595.28 595.28"><defs><style>.cls-1,.cls-2{stroke-width:0px;}.cls-2{fill:#b0ccd8;}.cls-3{stroke-width:15.43px;}.cls-3,.cls-4{fill:none;stroke:#000;stroke-miterlimit:10;}.cls-4{stroke-width:15.11px;}</style></defs><path class="cls-2" d="m83.43,56.8h428.42c9.21,0,16.69,7.48,16.69,16.69v399.87c0,9.21-7.48,16.69-16.69,16.69H83.43c-9.21,0-16.69-7.48-16.69-16.69V73.49c0-9.21,7.48-16.69,16.69-16.69Z"/><path class="cls-1" d="m511.85,59.31c7.83,0,14.17,6.35,14.17,14.17v399.87c0,7.83-6.35,14.17-14.17,14.17H83.43c-7.83,0-14.17-6.35-14.17-14.17V73.49c0-7.83,6.35-14.17,14.17-14.17h428.42m0-5.04H83.43c-10.59,0-19.21,8.62-19.21,19.21v399.87c0,10.59,8.62,19.21,19.21,19.21h428.42c10.59,0,19.21-8.62,19.21-19.21V73.49c0-10.59-8.62-19.21-19.21-19.21h0Z"/><polyline class="cls-4" points="467.31 276.03 413.36 222.35 359.37 276.06"/><polyline class="cls-3" points="127.96 287 127.96 324.49 342.07 324.49 342.07 287"/></svg>